{"title":"McVicar (1980) DVDRip XviD AC3 peaSoup","uid":9280024,"size":1299352606,"categoryP":"video","categoryS":"movies","magnet":"?xt=urn:btih:ee08c7cd1a386e93fc3aefd126b543a4dcbe81a3&amp;dn=McVicar+%281980%29+DVDRip+XviD+AC3+peaSoup&amp;tr=udp%3A%2F%2Ftracker.openbittorrent.com%3A80&amp;tr=udp%3A%2F%2Fopen.demonii.com%3A1337&amp;tr=udp%3A%2F%2Ftracker.coppersurfer.tk%3A6969&amp;tr=udp%3A%2F%2Fexodus.desync.com%3A6969","seeders":10,"leechers":0,"uploader":"peaSoup","files":-1,"time":1385921931,"description":"Storyline\n\n'John McVicar' was a London Bad Boy. he graduated to armed bank robbery and was Britain's &quot;Public Enemy No. 1&quot;. He was captured and put into a high security prison. Will even the highest security prison be able to hold him ? This is the true story of his life, his criminal exploits and his eventual rehabilitation.                 &lt;a href=&quot; http://imageshack.com/a/img197/4923/knef.jpg&quot; rel=&quot;nofollow&quot; target=&quot;_NEW&quot;&gt; http://imageshack.com/a/img197/4923/knef.jpg&lt;/a&gt;                                        &lt;a href=&quot; http://imageshack.com/a/img853/7363/9de7.jpg&quot; rel=&quot;nofollow&quot; target=&quot;_NEW&quot;&gt; http://imageshack.com/a/img853/7363/9de7.jpg&lt;/a&gt;                                        &lt;a href=&quot; http://imageshack.com/a/img30/6114/cshu.jpg&quot; rel=&quot;nofollow&quot; target=&quot;_NEW&quot;&gt; http://imageshack.com/a/img30/6114/cshu.jpg&lt;/a&gt;                                         &lt;a href=&quot; http://imageshack.com/a/img89/7138/iki0.jpg&quot; rel=&quot;nofollow&quot; target=&quot;_NEW&quot;&gt; http://imageshack.com/a/img89/7138/iki0.jpg&lt;/a&gt;                                         &lt;a href=&quot; http://imageshack.com/a/img600/6265/qw1m.jpg&quot; rel=&quot;nofollow&quot; target=&quot;_NEW&quot;&gt; http://imageshack.com/a/img600/6265/qw1m.jpg&lt;/a&gt;                                         Format                                   : AVI\nFormat/Info                              : Audio Video Interleave\nFormat profile                           : OpenDML\nFile size                                : 1.20 GiB\nDuration                                 : 1h 47mn\nOverall bit rate                         : 1 602 Kbps\nMovie name                               : McVicar (1980) DVDRip XviD AC3 peaSoup\nWriting application                      : Lavf53.21.0\nOriginal source form/Name                : MC_VICAR\n\nVideo\nID                                       : 0\nFormat                                   : MPEG-4 Visual\nFormat profile                           : Advanced Simple@L5\nFormat settings, BVOP                    : 2\nFormat settings, QPel                    : No\nFormat settings, GMC                     : No warppoints\nFormat settings, Matrix                  : Default (H.263)\nMuxing mode                              : Packed bitstream\nCodec ID                                 : XVID\nCodec ID/Hint                            : XviD\nDuration                                 : 1h 47mn\nBit rate                                 : 1 396 Kbps\nWidth                                    : 720 pixels\nHeight                                   : 388 pixels\nDisplay aspect ratio                     : 1.85:1\nFrame rate                               : 25.000 fps\nColor space                              : YUV\nChroma subsampling                       : 4:2:0\nBit depth                                : 8 bits\nScan type                                : Progressive\nCompression mode                         : Lossy\nBits/(Pixel*Frame)                       : 0.200\nStream size                              : 1.05 GiB (87%)\nWriting library                          : XviD 1.2.1 (UTC 2008-12-04)\n\nAudio\nID                                       : 1\nFormat                                   : AC-3\nFormat/Info                              : Audio Coding 3\nMode extension                           : CM (complete main)\nFormat settings, Endianness              : Big\nCodec ID                                 : 2000\nDuration                                 : 1h 47mn\nBit rate mode                            : Constant\nBit rate                                 : 192 Kbps\nChannel count                            : 2 channels\nChannel positions                        : Front: L R\nSampling rate                            : 48.0 KHz\nBit depth                                : 16 bits\nCompression mode                         : Lossy\nStream size                              : 148 MiB (12%)\nAlignment                                : Aligned on interleaves\nInterleave, duration                     : 32 ms (0.80 video frame)\n\n","torrent":{"xt":"urn:btih:ee08c7cd1a386e93fc3aefd126b543a4dcbe81a3","amp;dn":"McVicar+%281980%29+DVDRip+XviD+AC3+peaSoup","amp;tr":["udp%3A%2F%2Ftracker.openbittorrent.com%3A80","udp%3A%2F%2Fopen.demonii.com%3A1337","udp%3A%2F%2Ftracker.coppersurfer.tk%3A6969","udp%3A%2F%2Fexodus.desync.com%3A6969"],"infoHash":"ee08c7cd1a386e93fc3aefd126b543a4dcbe81a3","infoHashBuffer":{"type":"Buffer","data":[238,8,199,205,26,56,110,147,252,58,239,209,38,181,67,164,220,190,129,163]},"announce":[],"urlList":[]}}